<svg width="66" height="57" viewBox="0 0 66 57" fill="none" xmlns="http://www.w3.org/2000/svg">
<path d="M8.25014 42.7502C8.25 42.5968 8.25 42.4386 8.25 42.2755V14.7255C8.25 12.0652 8.25 10.7341 8.84946 9.71802C9.37677 8.82425 10.2175 8.09812 11.2524 7.64272C12.429 7.125 13.9702 7.125 17.0505 7.125H48.9505C52.0308 7.125 53.5702 7.125 54.7467 7.64272C55.7816 8.09812 56.6238 8.82425 57.1511 9.71802C57.75 10.7331 57.75 12.0626 57.75 14.7177V42.2823C57.75 43.4342 57.75 44.3363 57.7011 45.0713M8.25014 42.7502C8.25226 45.0975 8.28677 46.3263 8.84946 47.2801C9.37677 48.1738 10.2175 48.9024 11.2524 49.3578C12.4278 49.875 13.9672 49.875 17.0415 49.875H48.9598C52.0341 49.875 53.5713 49.875 54.7467 49.3578C55.7816 48.9024 56.6238 48.1738 57.1511 47.2801C57.4902 46.7054 57.6373 46.0305 57.7011 45.0713M8.25014 42.7502L21.3619 29.5391L21.3658 29.5354C22.5287 28.3637 23.1112 27.7768 23.802 27.5653C24.4088 27.3795 25.0714 27.3838 25.6752 27.5769C26.3632 27.7969 26.9364 28.3904 28.0828 29.5785L35.4285 37.1913C36.4896 38.2911 37.0233 38.8441 37.6712 39.0661C38.2428 39.2619 38.873 39.2839 39.4628 39.1337C40.134 38.9626 40.7249 38.4523 41.9066 37.4318L43.2736 36.2512C44.4767 35.2122 45.0782 34.693 45.7591 34.5233C46.3571 34.3743 46.9965 34.4063 47.5718 34.6115C48.2268 34.8451 48.758 35.4169 49.8209 36.5643L57.7011 45.0713M57.7011 45.0713L57.7499 45.1241M41.25 21.375C39.7312 21.375 38.5 20.3117 38.5 19C38.5 17.6883 39.7312 16.625 41.25 16.625C42.7688 16.625 44 17.6883 44 19C44 20.3117 42.7688 21.375 41.25 21.375Z" stroke="white" stroke-width="2" stroke-linecap="round" stroke-linejoin="round"/>
</svg>
