<svg width="38" height="40" viewBox="0 0 38 40" fill="none" xmlns="http://www.w3.org/2000/svg">
<path d="M6.33333 9.99992L16.0038 17.687L16.007 17.6898C17.0808 18.5187 17.618 18.9334 18.2064 19.0936C18.7264 19.2352 19.2731 19.2352 19.7932 19.0936C20.3821 18.9333 20.9209 18.5174 21.9966 17.687C21.9966 17.687 28.1993 12.6765 31.6667 9.99992M4.75 26.3336V13.6669C4.75 11.8001 4.75 10.866 5.09515 10.1529C5.39875 9.52571 5.88283 9.01614 6.47868 8.69656C7.15607 8.33325 8.04348 8.33325 9.81698 8.33325H28.1836C29.9571 8.33325 30.8427 8.33325 31.52 8.69656C32.1159 9.01614 32.6016 9.52571 32.9052 10.1529C33.25 10.8653 33.25 11.7982 33.25 13.6614V26.3392C33.25 28.2024 33.25 29.134 32.9052 29.8464C32.6016 30.4736 32.1159 30.9841 31.52 31.3036C30.8433 31.6666 29.9583 31.6666 28.1882 31.6666H9.81177C8.04174 31.6666 7.1554 31.6666 6.47868 31.3036C5.88283 30.9841 5.39875 30.4736 5.09515 29.8464C4.75 29.1334 4.75 28.2004 4.75 26.3336Z" stroke="white" stroke-width="2" stroke-linecap="round" stroke-linejoin="round"/>
</svg>
