<svg width="76" height="75" viewBox="0 0 76 75" fill="none" xmlns="http://www.w3.org/2000/svg">
<path d="M47.5 31.25L34.8333 43.75L28.5 37.5M23.2172 12.3047L12.4688 22.9117L12.459 22.9207C11.3701 23.9952 10.8244 24.5338 10.4339 25.1626C10.0867 25.7218 9.83014 26.3322 9.67499 26.9699C9.5 27.6892 9.5 28.4533 9.5 29.982V45.018C9.5 46.5467 9.5 47.311 9.67499 48.0303C9.83014 48.668 10.0867 49.2775 10.4339 49.8367C10.8255 50.4673 11.3741 51.0087 12.4688 52.0889L23.2171 62.6959C24.3125 63.7769 24.859 64.3161 25.4981 64.7026C26.0648 65.0453 26.6817 65.2995 27.328 65.4526C28.0557 65.625 28.8288 65.625 30.3731 65.625H45.6238C47.1681 65.625 47.9445 65.625 48.6722 65.4526C49.3185 65.2995 49.9361 65.0454 50.5028 64.7027C51.1419 64.3162 51.6897 63.7768 52.785 62.6959L63.5334 52.0889C64.6287 51.008 65.1753 50.4675 65.5669 49.8367C65.9142 49.2775 66.1686 48.668 66.3237 48.0303C66.4987 47.311 66.5 46.5467 66.5 45.0181V29.982C66.5 28.4533 66.4987 27.6892 66.3237 26.9699C66.1686 26.3322 65.9142 25.7218 65.5669 25.1626C65.1753 24.5319 64.6287 23.9925 63.5334 22.9117L52.785 12.3047C51.6903 11.2244 51.1417 10.683 50.5028 10.2966C49.9361 9.95395 49.3185 9.70079 48.6723 9.54769C47.9434 9.375 47.1658 9.375 45.6167 9.375H30.3802C28.8311 9.375 28.0569 9.375 27.328 9.54769C26.6817 9.70079 26.0648 9.95395 25.4981 10.2966C24.8648 10.6796 24.3234 11.214 23.2478 12.2754L23.2172 12.3047Z" stroke="white" stroke-width="2" stroke-linecap="round" stroke-linejoin="round"/>
</svg>
