<svg width="38" height="40" viewBox="0 0 38 40" fill="none" xmlns="http://www.w3.org/2000/svg">
<path d="M15.0456 7.09536C14.5647 5.82984 13.4003 5 12.1054 5H7.75C6.09315 5 4.75 6.4135 4.75 8.15755C4.75 22.982 16.1671 35 30.2503 35C31.9072 35 33.25 33.586 33.25 31.842L33.2507 27.2566C33.2507 25.8936 32.4626 24.6681 31.2603 24.1619L27.086 22.4049C26.006 21.9502 24.7765 22.1548 23.8829 22.9386L22.8056 23.8845C21.5474 24.9881 19.6961 24.9004 18.538 23.6813L15.5044 20.4851C14.3462 19.266 14.2607 17.3189 15.3092 15.9945L16.2075 14.8605C16.9521 13.9199 17.1483 12.6253 16.7163 11.4885L15.0456 7.09536Z" stroke="white" stroke-width="2" stroke-linecap="round" stroke-linejoin="round"/>
</svg>
