<svg width="63" height="63" viewBox="0 0 63 63" fill="none" xmlns="http://www.w3.org/2000/svg">
<path d="M23.625 35.4375L39.375 43.3125M39.375 19.6875L23.625 27.5625M47.25 55.125C42.9008 55.125 39.375 51.5992 39.375 47.25C39.375 42.9008 42.9008 39.375 47.25 39.375C51.5992 39.375 55.125 42.9008 55.125 47.25C55.125 51.5992 51.5992 55.125 47.25 55.125ZM15.75 39.375C11.4008 39.375 7.875 35.8492 7.875 31.5C7.875 27.1508 11.4008 23.625 15.75 23.625C20.0992 23.625 23.625 27.1508 23.625 31.5C23.625 35.8492 20.0992 39.375 15.75 39.375ZM47.25 23.625C42.9008 23.625 39.375 20.0992 39.375 15.75C39.375 11.4008 42.9008 7.875 47.25 7.875C51.5992 7.875 55.125 11.4008 55.125 15.75C55.125 20.0992 51.5992 23.625 47.25 23.625Z" stroke="white" stroke-width="2" stroke-linecap="round" stroke-linejoin="round"/>
</svg>
